<?xml version="1.0" encoding="iso-8859-1"?>
<!-- Generator: Adobe Illustrator 19.0.0, SVG Export Plug-In . SVG Version: 6.00 Build 0)  -->
<svg version="1.1" id="Capa_1" xmlns="http://www.w3.org/2000/svg" xmlns:xlink="http://www.w3.org/1999/xlink" x="0px" y="0px"
	 viewBox="0 0 436.656 436.656" style="enable-background:new 0 0 436.656 436.656;" xml:space="preserve">
<path d="M427.985,8.671C422.231,2.917,414.106,0,403.837,0c-29.782,0-72.725,24.574-103.505,45.188
	c-43.932,29.422-91.88,69.702-138.661,116.483c-54.939,54.939-101.29,112.021-130.515,160.728
	c-21.91,36.516-43.596,84.475-22.485,105.585c5.754,5.754,13.879,8.671,24.148,8.671c29.782,0,72.725-24.574,103.505-45.188
	c43.932-29.422,91.88-69.702,138.661-116.483c54.939-54.939,101.29-112.021,130.515-160.728
	C427.41,77.741,449.096,29.782,427.985,8.671z M391.78,106.025c-28.571,47.618-74.067,103.605-128.109,157.646
	c-77.245,77.245-158.899,136.495-207.983,152.611l112.298-112.298c3.124-3.124,3.124-8.189,0-11.313
	c-3.125-3.124-8.189-3.124-11.314,0L28.917,420.425c-3.914-0.483-6.914-1.736-8.932-3.754c-1.907-1.907-3.226-4.875-3.739-8.947
	L327.985,95.985c3.124-3.124,3.124-8.189,0-11.313c-3.125-3.124-8.189-3.124-11.314,0l-296.19,296.19
	c4.328-13.062,12.066-29.681,24.395-50.23c28.571-47.618,74.067-103.605,128.109-157.646
	C250.231,95.74,331.885,36.49,380.969,20.374l-40.298,40.298c-3.124,3.124-3.124,8.189,0,11.313
	c1.563,1.562,3.609,2.343,5.657,2.343s4.095-0.781,5.657-2.343l55.754-55.754c3.914,0.483,6.914,1.736,8.932,3.754
	c1.907,1.907,3.226,4.875,3.739,8.947L180.671,268.671c-3.124,3.124-3.124,8.189,0,11.313c1.563,1.562,3.609,2.343,5.657,2.343
	s4.095-0.781,5.657-2.343l224.19-224.19C411.847,68.856,404.11,85.476,391.78,106.025z"/>
<g>
</g>
<g>
</g>
<g>
</g>
<g>
</g>
<g>
</g>
<g>
</g>
<g>
</g>
<g>
</g>
<g>
</g>
<g>
</g>
<g>
</g>
<g>
</g>
<g>
</g>
<g>
</g>
<g>
</g>
</svg>
